<?xml version="1.0" standalone="no"?>
<!DOCTYPE svg PUBLIC "-//W3C//DTD SVG 20010904//EN"
 "http://www.w3.org/TR/2001/REC-SVG-20010904/DTD/svg10.dtd">
<svg version="1.0" xmlns="http://www.w3.org/2000/svg"
 width="512.000000pt" height="512.000000pt" viewBox="0 0 512.000000 512.000000"
 preserveAspectRatio="xMidYMid meet">

<g transform="translate(0.000000,512.000000) scale(0.100000,-0.100000)"
fill="#000000" stroke="none">
<path d="M185 4615 c-16 -15 -25 -36 -25 -55 0 -19 9 -40 25 -55 l24 -25 264
0 263 0 303 -1286 c166 -707 301 -1287 299 -1289 -2 -1 -21 -11 -43 -21 -54
-25 -115 -88 -145 -149 -24 -47 -25 -60 -25 -215 l0 -165 34 -63 c19 -35 48
-74 64 -88 44 -37 117 -71 168 -79 l45 -7 -36 -71 c-33 -66 -35 -77 -35 -167
0 -91 2 -100 37 -172 45 -91 103 -147 196 -191 61 -29 76 -32 162 -32 86 0
101 3 162 32 93 44 151 100 196 191 35 72 37 81 37 172 0 90 -2 101 -36 168
l-35 72 796 0 796 0 -35 -72 c-34 -67 -36 -78 -36 -168 0 -91 2 -100 37 -172
45 -91 103 -147 196 -191 61 -29 76 -32 163 -32 90 0 99 2 171 37 91 45 147
103 191 196 29 61 32 76 32 163 0 89 -2 100 -36 167 l-35 72 173 0 c171 0 174
0 198 25 30 29 32 74 6 106 l-19 24 -1649 5 -1650 5 -37 29 c-58 44 -68 79
-64 222 3 133 10 153 72 198 27 21 31 21 1596 26 1454 5 1571 6 1586 22 12 12
76 297 220 990 112 535 203 983 204 996 0 13 -11 34 -25 47 l-24 25 -1930 0
-1929 0 -36 153 c-20 83 -60 255 -90 382 -44 184 -59 233 -76 247 -20 16 -50
18 -332 18 l-309 0 -24 -25z m1505 -943 c0 -12 29 -242 35 -279 l6 -33 -284 0
-283 0 -33 143 c-18 78 -35 150 -37 160 -5 16 14 17 295 17 166 0 301 -4 301
-8z m794 -34 c3 -24 7 -96 9 -160 l3 -118 -303 0 c-167 0 -303 1 -303 3 0 1
-9 72 -20 157 -11 85 -20 156 -20 158 0 1 141 2 314 2 l315 0 5 -42z m789 -75
c-2 -65 -6 -137 -9 -160 l-5 -43 -299 0 -299 0 -5 43 c-3 23 -7 95 -9 160 l-3
117 316 0 316 0 -3 -117z m792 85 c-6 -38 -35 -268 -35 -280 0 -4 -136 -8
-303 -8 l-303 0 3 118 c2 64 6 136 9 160 l5 42 315 0 315 0 -6 -32z m712 10
c-3 -13 -18 -85 -33 -160 l-29 -138 -263 0 -263 0 6 33 c6 37 35 267 35 279 0
4 124 8 276 8 l276 0 -5 -22z m-3027 -466 c0 -12 29 -242 36 -280 l5 -32 -258
2 -258 3 -12 55 c-7 30 -23 101 -36 158 l-25 102 274 0 c151 0 274 -4 274 -8z
m754 -34 c3 -24 7 -96 9 -160 l3 -118 -283 0 c-156 0 -283 1 -283 3 0 1 -9 72
-20 157 -11 85 -20 156 -20 158 0 1 132 2 294 2 l295 0 5 -42z m749 -75 c-2
-65 -6 -137 -9 -160 l-5 -43 -279 0 -279 0 -5 43 c-3 23 -7 95 -9 160 l-3 117
296 0 296 0 -3 -117z m752 85 c-6 -38 -35 -268 -35 -280 0 -4 -127 -8 -283 -8
l-283 0 3 118 c2 64 6 136 9 160 l5 42 295 0 295 0 -6 -32z m672 10 c-3 -13
-18 -85 -33 -160 l-29 -138 -243 0 -243 0 6 33 c6 37 35 267 35 279 0 4 115 8
256 8 l256 0 -5 -22z m-2867 -466 c0 -12 29 -242 35 -279 l6 -33 -230 0 -231
0 -5 23 c-3 12 -19 79 -35 149 -17 70 -30 132 -30 137 0 8 80 11 245 11 135 0
245 -4 245 -8z m714 -34 c3 -24 7 -96 9 -160 l3 -118 -263 0 c-145 0 -263 1
-263 3 0 1 -9 72 -20 157 -11 85 -20 156 -20 158 0 1 123 2 274 2 l275 0 5
-42z m709 -75 c-2 -65 -6 -137 -9 -160 l-5 -43 -259 0 -259 0 -5 43 c-3 23 -7
95 -9 160 l-3 117 276 0 276 0 -3 -117z m712 85 c-6 -38 -35 -268 -35 -280 0
-4 -118 -8 -263 -8 l-263 0 3 118 c2 64 6 136 9 160 l5 42 275 0 275 0 -6 -32z
m632 10 c-3 -13 -18 -85 -33 -160 l-29 -138 -223 0 -223 0 6 33 c6 37 35 267
35 279 0 4 106 8 236 8 l236 0 -5 -22z m-2707 -466 c0 -12 29 -242 35 -279 l6
-33 -204 0 -204 0 -33 143 c-18 78 -35 150 -38 160 -4 16 11 17 217 17 121 0
221 -4 221 -8z m674 -34 c3 -24 7 -96 9 -160 l3 -118 -243 0 c-134 0 -243 1
-243 3 0 1 -9 72 -20 157 -11 85 -20 156 -20 158 0 1 114 2 254 2 l255 0 5
-42z m669 -75 c-2 -65 -6 -137 -9 -160 l-5 -43 -239 0 -239 0 -5 43 c-3 23 -7
95 -9 160 l-3 117 256 0 256 0 -3 -117z m672 85 c-6 -38 -35 -268 -35 -280 0
-4 -109 -8 -243 -8 l-243 0 3 118 c2 64 6 136 9 160 l5 42 255 0 255 0 -6 -32z
m592 10 c-3 -13 -18 -85 -33 -160 l-29 -138 -203 0 -203 0 6 33 c6 37 35 267
35 279 0 4 97 8 216 8 l216 0 -5 -22z m-2593 -1142 c146 -85 142 -310 -7 -396
-114 -65 -256 -27 -319 87 -95 169 46 371 238 343 23 -4 62 -19 88 -34z m2240
0 c146 -85 142 -310 -7 -396 -114 -65 -256 -27 -319 87 -95 169 46 371 238
343 23 -4 62 -19 88 -34z"/>
<path d="M1702 937 c-50 -53 -13 -137 59 -137 47 0 79 34 79 81 0 71 -90 107
-138 56z"/>
<path d="M3942 937 c-50 -53 -13 -137 59 -137 47 0 79 34 79 81 0 71 -90 107
-138 56z"/>
</g>
</svg>
